<?xml version="1.0" encoding="UTF-8"?>
<!DOCTYPE svg PUBLIC "-//W3C//DTD SVG 1.1//EN" "http://www.w3.org/Graphics/SVG/1.1/DTD/svg11.dtd">
<!-- Creator: CorelDRAW -->
<svg xmlns="http://www.w3.org/2000/svg" xml:space="preserve" width="10.4723cm" height="9.0679cm" style="shape-rendering:geometricPrecision; text-rendering:geometricPrecision; image-rendering:optimizeQuality; fill-rule:evenodd; clip-rule:evenodd"
viewBox="0 0 10.4723 9.0679"
 xmlns:xlink="http://www.w3.org/1999/xlink">
 <defs>
  <style type="text/css">
   <![CDATA[
    .fil0 {fill:white}
    .fil1 {fill:white;fill-rule:nonzero}
   ]]>
  </style>
 </defs>
 <g id="Layer_x0020_1">
  <metadata id="CorelCorpID_0Corel-Layer"/>
  <g id="_110914376">
   <path id="_110915144" class="fil0" d="M7.85462 9.06789l-2.61758 -4.53399 -5.23704 0 2.6177 4.53399 5.23692 0zm-2.85364 -4.12536l-3.82122 0 -0.47191 0 2.14588 3.7168 0.47192 0 3.82112 0 0.47191 0 -2.14579 -3.7168 -0.47191 0z"/>
   <path id="_110914856" class="fil0" d="M0 4.53399l2.61758 -4.53399 5.23704 0 -2.6177 4.53399 -5.23692 0zm0.70785 -0.40859l2.14579 -3.7168 0.47189 0 3.82124 0 0.47188 0 -2.14591 3.7168 -0.47188 0 -3.82113 0 -0.47188 0z"/>
   <path id="_110913968" class="fil0" d="M7.85468 3e-005l-2.61773 4.53393 2.61773 4.53393 2.61762 -4.53393 -2.61762 -4.53393zm0 0.81837l-2.14524 3.71556 2.14524 3.71557 2.14513 -3.71557 -2.14513 -3.71556z"/>
   <polygon id="_110913632" class="fil1" points="7.56137,6.50554 7.79553,6.87402 9.29854,4.37258 8.48922,3.099 7.35822,4.98131 7.25419,5.15443 7.14604,4.98423 6.95432,4.68253 6.91318,4.6178 6.95285,4.5518 8.14822,2.56238 7.91406,2.19391 6.41103,4.69535 7.22036,5.96892 8.35136,4.08662 8.45538,3.91348 8.56355,4.08369 8.75527,4.3854 8.79639,4.45011 8.75673,4.51612 "/>
  </g>
 </g>
</svg>
